<?xml version="1.0" encoding="UTF-8"?>
<!-- Created with Inkscape (http://www.inkscape.org/) -->
<svg width="64mm" height="64mm" version="1.1" viewBox="0 0 64 64" xmlns="http://www.w3.org/2000/svg">
 <circle cx="32" cy="32" r="22.5" stroke-width=".2482"/>
 <g transform="matrix(.80061 0 0 .80061 6.3649 6.3887)" stroke-width=".353">
  <path d="m35.208 31.405a12.5 12.5 0 0 0-3.2081 0.5948 12.5 12.5 0 0 1 1.3064 12.431 12.5 12.5 0 0 1-4.0721 5.0286 12.5 12.5 0 0 1-6.0405 2.3187 12.5 12.5 0 0 1-10.311-3.762 25 25 0 0 0 26.842 7.7597 12.5 12.5 0 0 0 8.3638-9.2894 12.5 12.5 0 0 0-0.33796-6.4616 12.5 12.5 0 0 0-3.5243-5.4265 12.5 12.5 0 0 0-9.0186-3.1936z" fill="#fc0"/>
  <path d="m10.86 18.768a25 25 0 0 0 0.91467 27.926 12.5 12.5 0 0 0 11.419 5.0839 12.5 12.5 0 0 0 6.0405-2.3187 12.5 12.5 0 0 0 4.0721-5.0286 12.5 12.5 0 0 0-1.3064-12.431 12.5 12.5 0 0 1-11.419 5.0839 12.5 12.5 0 0 1-6.0415-2.3187 12.5 12.5 0 0 1-4.0716-5.0286 12.5 12.5 0 0 1 0.39171-10.968z" fill="#217844"/>
  <path d="m32.801 7.013a25 25 0 0 0-21.027 10.292 12.5 12.5 0 0 0-1.3064 12.431 12.5 12.5 0 0 0 4.0716 5.0286 12.5 12.5 0 0 0 6.0415 2.3187 12.5 12.5 0 0 0 11.419-5.0839 12.5 12.5 0 0 1-8.3638-9.2894 12.5 12.5 0 0 1 0.33848-6.4616 12.5 12.5 0 0 1 3.5238-5.4265 12.5 12.5 0 0 1 10.552-3.0169 25 25 0 0 0-5.2493-0.79272z" fill="#04a"/>
  <path d="m36.517 7.629a12.5 12.5 0 0 0-9.0186 3.1936 12.5 12.5 0 0 0-3.5238 5.4265 12.5 12.5 0 0 0-0.33848 6.4616 12.5 12.5 0 0 0 8.3638 9.2894 12.5 12.5 0 0 1 6.2497-10.825 12.5 12.5 0 0 1 6.2503-1.6748 12.5 12.5 0 0 1 6.2497 1.6748 12.5 12.5 0 0 1 6.1304 9.1028 25 25 0 0 0-17.155-22.054 12.5 12.5 0 0 0-3.2086-0.59428z" fill="#d40000"/>
  <path d="m44.5 19.5a12.5 12.5 0 0 0-6.2503 1.6748 12.5 12.5 0 0 0-6.2497 10.825 12.5 12.5 0 0 1 12.227 2.5988 12.5 12.5 0 0 1 3.5243 5.4265 12.5 12.5 0 0 1 0.33796 6.4616 12.5 12.5 0 0 1-6.7619 8.6429 25 25 0 0 0 15.673-23.13 12.5 12.5 0 0 0-6.2503-10.825 12.5 12.5 0 0 0-6.2497-1.6748z" fill="#f2f1f4"/>
 </g>
</svg>
