<?xml version="1.0" encoding="UTF-8"?>
<!-- Created with Inkscape (http://www.inkscape.org/) -->
<svg width="64mm" height="64mm" version="1.1" viewBox="0 0 64 64" xmlns="http://www.w3.org/2000/svg">
 <g stroke-width=".353">
  <rect width="64" height="64" rx="10"/>
  <circle cx="32" cy="32" r="26" fill="#666"/>
  <path d="m35.208 31.405a12.5 12.5 0 0 0-3.2081 0.5948 12.5 12.5 0 0 1 1.3064 12.431 12.5 12.5 0 0 1-4.0721 5.0286 12.5 12.5 0 0 1-6.0405 2.3187 12.5 12.5 0 0 1-10.311-3.762 25 25 0 0 0 26.842 7.7597 12.5 12.5 0 0 0 8.3638-9.2894 12.5 12.5 0 0 0-0.33796-6.4616 12.5 12.5 0 0 0-3.5243-5.4265 12.5 12.5 0 0 0-9.0186-3.1936z" fill="#fc0"/>
  <path d="m10.86 18.768a25 25 0 0 0 0.91467 27.926 12.5 12.5 0 0 0 11.419 5.0839 12.5 12.5 0 0 0 6.0405-2.3187 12.5 12.5 0 0 0 4.0721-5.0286 12.5 12.5 0 0 0-1.3064-12.431 12.5 12.5 0 0 1-11.419 5.0839 12.5 12.5 0 0 1-6.0415-2.3187 12.5 12.5 0 0 1-4.0716-5.0286 12.5 12.5 0 0 1 0.39171-10.968z" fill="#217844"/>
  <path d="m32.801 7.013a25 25 0 0 0-21.027 10.292 12.5 12.5 0 0 0-1.3064 12.431 12.5 12.5 0 0 0 4.0716 5.0286 12.5 12.5 0 0 0 6.0415 2.3187 12.5 12.5 0 0 0 11.419-5.0839 12.5 12.5 0 0 1-8.3638-9.2894 12.5 12.5 0 0 1 0.33848-6.4616 12.5 12.5 0 0 1 3.5238-5.4265 12.5 12.5 0 0 1 10.552-3.0169 25 25 0 0 0-5.2493-0.79272z" fill="#04a"/>
  <path d="m36.517 7.629a12.5 12.5 0 0 0-9.0186 3.1936 12.5 12.5 0 0 0-3.5238 5.4265 12.5 12.5 0 0 0-0.33848 6.4616 12.5 12.5 0 0 0 8.3638 9.2894 12.5 12.5 0 0 1 6.2497-10.825 12.5 12.5 0 0 1 6.2503-1.6748 12.5 12.5 0 0 1 6.2497 1.6748 12.5 12.5 0 0 1 6.1304 9.1028 25 25 0 0 0-17.155-22.054 12.5 12.5 0 0 0-3.2086-0.59428z" fill="#d40000"/>
  <path d="m44.5 19.5a12.5 12.5 0 0 0-6.2503 1.6748 12.5 12.5 0 0 0-6.2497 10.825 12.5 12.5 0 0 1 12.227 2.5988 12.5 12.5 0 0 1 3.5243 5.4265 12.5 12.5 0 0 1 0.33796 6.4616 12.5 12.5 0 0 1-6.7619 8.6429 25 25 0 0 0 15.673-23.13 12.5 12.5 0 0 0-6.2503-10.825 12.5 12.5 0 0 0-6.2497-1.6748z" fill="#f2f1f4"/>
 </g>
 <path d="m24.447 21.406v0.52968l-5.17e-4 -5.17e-4v6.0291c-1.2184 0.05868-2.4934-0.68467-2.7202-1.9472-0.35297-1.4276-0.09477-2.9099-0.19172-4.3615-2.263 1e-6 -4.5262 0-6.7892 0-0.15217 1.7561 0.36915 3.6938-0.6072 5.2834-0.72422 1.1048-2.1876 1.0426-3.3517 1.0216 0.44002 1.7421 0.97983 3.4891 1.3575 5.2281-0.10895 1.4559-0.0039 2.9286-0.04289 4.3915v5.0131h19.18v-21.187h-6.8337zm20.05 0v14.488c-1.7762-1.0706-2.0994-3.3327-2.3265-5.2142-0.3171-2.9982-0.1048-6.0168-0.17932-9.0243h-6.6735c-0.14589 4.0267 0.43201 8.1496-0.86558 12.006-0.44658 1.2155-1.3902 2.3374-2.7125 2.5978-0.42997 0.93037 0.38611 1.7671 0.60151 2.6381 0.41212 1.0295 0.82353 2.0594 1.2361 3.0887 2.0142-0.15625 3.8074-1.3886 5.041-2.8851 1.2039 1.5605 2.9975 2.6986 4.9826 2.8887 0.30103-0.74456 0.59707-1.4907 0.89607-2.236v2.8396h6.8342v-8.0548h1.8826v-5.8808h-1.8826v-7.2518h-6.8342zm-18.993 1.0578h4.7175v10.289h-4.7175zm20.049 1e-3h4.7181v7.2518h1.8821v3.7641h-1.8821v8.0553h-4.7181v-19.071zm-29.761 0.25011h4.6927v1.8319c0 1.4722 0.35108 2.5845 1.0537 3.3373 0.7026 0.73607 1.5643 1.1043 2.5849 1.1043l-1.0041 3.7641c-0.93687 0-1.84-0.17579-2.7099-0.5271-0.85316-0.36803-1.6058-0.88636-2.2583-1.5555-0.66918 0.66915-1.4391 1.1875-2.3089 1.5555-0.8532 0.35131-1.7482 0.5271-2.6851 0.5271l-1.0036-3.7641c1.0205 0 1.8822-0.36826 2.5849-1.1043 0.7026-0.7528 1.0537-1.8651 1.0537-3.3373zm20.577 5.17e-4h4.5672l-5.1e-4 4.4917c0 3.0447 0.29297 5.3451 0.8785 6.9009 0.60225 1.5558 1.4806 2.5261 2.635 2.9109l-1.5059 3.7641c-0.7528-0.13383-1.514-0.50209-2.2836-1.1043-0.7528-0.60225-1.4302-1.4221-2.0324-2.4593-0.63571 1.0372-1.3383 1.857-2.1079 2.4593-0.7528 0.60225-1.514 0.97051-2.2836 1.1043l-1.5059-3.7641c1.1711-0.40151 2.0661-1.3804 2.6851-2.9363 0.63571-1.5725 0.95395-3.8642 0.95395-6.8755v-4.4917zm-11.93 9.3276c0.0497-0.0022 0.07904 0.13426 0.0062 0.54519v0.02274c-0.24781-0.11889-0.0948-0.56396-0.0062-0.56792zm-6.3009 0.05064c0.07152-0.0045 0.13294 0.12001 0.21342 0.15606 0.76002 0.39786 0.39961 0.41773-0.25321 0.3731-0.90433 0.10408-0.6251-0.10284-0.03617-0.47387 0.02718-0.0383 0.05212-0.05378 0.07596-0.05529zm-4.9811 1.5875h17.064v7.8543h-17.064zm4.7181 3.3879v1.079h7.6285v-1.079z" style="text-decoration-color:#000000;white-space:pre"/>
 <path d="m25.504 22.464h4.7177v10.289h-4.7177zm-7.3525 8.2057q-1.0038 1.0038-2.3086 1.5558-1.2798 0.52697-2.6851 0.52697l-1.0038-3.7641q1.5307 0 2.5847-1.1041 1.0539-1.1292 1.0539-3.3375v-1.8319h4.6926v1.8319q0 2.2083 1.0539 3.3375 1.0539 1.1041 2.5847 1.1041l-1.0038 3.7641q-1.4053 0-2.7102-0.52697-1.2798-0.55207-2.2585-1.5558zm-4.9937 10.866v-7.8544h17.064v7.8544zm4.7177-4.4667v1.079h7.6286v-1.079zm32.396-7.3525h1.882v3.7641h-1.882v8.0552h-4.7177v-19.071h4.7177zm-9.335-2.5094q0 4.5671 0.87829 6.9008 0.90338 2.3337 2.6349 2.9109l-1.5056 3.7641q-1.1292-0.20075-2.2836-1.1041-1.1292-0.90338-2.0326-2.4592-0.95357 1.5558-2.1079 2.4592-1.1292 0.90338-2.2836 1.1041l-1.5056-3.7641q1.7566-0.60226 2.6851-2.936 0.95357-2.3588 0.95357-6.8758v-4.4918h4.5671z" fill="#fff" stroke-width=".62775" style="white-space:pre" aria-label="심사"/>
</svg>
